<svg width="62" height="62" viewBox="0 0 62 62" fill="none" xmlns="http://www.w3.org/2000/svg">
<rect width="62" height="62" rx="10" fill="#04ED98"/>
<path d="M9.0625 40.8124V35.982C9.0625 23.853 18.8078 13.8546 30.9156 13.8124C33.8036 13.8013 36.6653 14.3605 39.3367 15.458C42.008 16.5555 44.4363 18.1697 46.4824 20.2079C48.5284 22.246 50.1518 24.6682 51.2596 27.3353C52.3673 30.0024 52.9375 32.8619 52.9375 35.7499V40.8124C52.9375 41.26 52.7597 41.6892 52.4432 42.0057C52.1268 42.3221 51.6976 42.4999 51.25 42.4999H10.75C10.3024 42.4999 9.87322 42.3221 9.55676 42.0057C9.24029 41.6892 9.0625 41.26 9.0625 40.8124Z" fill="white"/>
<path d="M31 13.8125V20.5625" stroke="#04E894" stroke-width="2" stroke-linecap="round" stroke-linejoin="round"/>
<path d="M9.80078 30.0758L16.3398 31.8266" stroke="#04E894" stroke-width="2" stroke-linecap="round" stroke-linejoin="round"/>
<path d="M52.1992 30.0758L45.6602 31.8266" stroke="#04E894" stroke-width="2" stroke-linecap="round" stroke-linejoin="round"/>
<path d="M25.8109 42.5L40.239 23.7054" stroke="#04E894" stroke-width="2" stroke-linecap="round" stroke-linejoin="round"/>
</svg>
