<svg width="62" height="62" viewBox="0 0 62 62" fill="none" xmlns="http://www.w3.org/2000/svg">
<rect width="62" height="62" rx="10" fill="#04ED98"/>
<path d="M46.8125 30.2963V42.0624C46.8086 43.6215 46.1875 45.1156 45.0851 46.2181C43.9827 47.3205 42.4885 47.9416 40.9294 47.9455H32.4726C32.1605 47.9455 31.8612 47.8215 31.6406 47.6008C31.4199 47.3802 31.2959 47.0809 31.2959 46.7688C31.2959 46.4568 31.4199 46.1575 31.6406 45.9369C31.8612 45.7162 32.1605 45.5922 32.4726 45.5922H40.9294C41.8644 45.5884 42.76 45.2152 43.4211 44.5541C44.0823 43.893 44.4554 42.9974 44.4593 42.0624V41.8565C44.0819 41.9926 43.6838 42.0623 43.2827 42.0624H40.9294C39.9933 42.0624 39.0954 41.6905 38.4335 41.0285C37.7715 40.3666 37.3996 39.4687 37.3996 38.5326V32.6495C37.3996 31.7133 37.7715 30.8155 38.4335 30.1535C39.0954 29.4916 39.9933 29.1197 40.9294 29.1197H44.4004C44.1055 25.8873 42.6067 22.8837 40.2013 20.7044C37.7958 18.525 34.6594 17.3291 31.4136 17.3536H31.3989C28.1512 17.3222 25.011 18.5159 22.6041 20.6965C20.1972 22.8772 18.7004 25.8847 18.4121 29.1197H21.8831C22.818 29.1235 23.7136 29.4967 24.3747 30.1578C25.0359 30.819 25.409 31.7145 25.4129 32.6495V38.5326C25.409 39.4675 25.0359 40.3631 24.3747 41.0243C23.7136 41.6854 22.818 42.0585 21.8831 42.0624H19.5298C18.5949 42.0585 17.6993 41.6854 17.0381 41.0243C16.377 40.3631 16.0039 39.4675 16 38.5326V30.2963C16 28.2789 16.399 26.2814 17.1741 24.4189C17.9492 22.5564 19.0851 20.8656 20.5164 19.4439C21.9477 18.0221 23.6461 16.8976 25.5138 16.135C27.3815 15.3724 29.3816 14.9868 31.3989 15.0003H31.5166C35.5721 15.0042 39.4604 16.617 42.3281 19.4847C45.1958 22.3524 46.8086 26.2407 46.8125 30.2963Z" fill="white"/>
</svg>
